# xmcd CD database file
#
# Track frame offsets:
#	150
#	12948
#	30601
#	45166
#	111581
#	143551
#	159244
#	213274
#	237256
#	260503
#	279655
#	288277
#	303332
#
# Disc length: 4270 seconds
#
# Revision: 2
# Processed by: cddbd v1.5.2PL0 Copyright (c) Steve Scherf et al.
# Submitted via: CDex 1.51
#
DISCID=ac10ac0d
DTITLE=STEVIE RAY VAUGHAN - Up From The Skies
DYEAR=1996
DGENRE=Blues Rock
TTITLE0=Rude Mood
TTITLE1=Pride and Joy
TTITLE2=Testify
TTITLE3=Voodoo Chile
TTITLE4=Ain't Gonna Give Up On Love
TTITLE5=Pride and Joy
TTITLE6=Life Without You
TTITLE7=Love Struck Baby
TTITLE8=Say What
TTITLE9=Change It
TTITLE10=Stevie's Shuffle
TTITLE11=Let The Good Times Roll
TTITLE12=Hangnails and Bugers
EXTD=Tracks 1-3 - MTV "Unplugged"\nTracks 4-10 - European TV, '84-86\nTracks 11-13 - Studio Outtakes '85-86 YEAR: 1996
EXTT0=
EXTT1=
EXTT2=
EXTT3=
EXTT4=
EXTT5=
EXTT6=
EXTT7=
EXTT8=
EXTT9=
EXTT10=
EXTT11=
EXTT12=
PLAYORDER=
